# xmcd CD database file
#
# Track frame offsets:
#	150
#	26175
#	45975
#
# Disc length: 910 seconds
#
# Revision: 2
# Processed by: cddbd v1.5.2PL0 Copyright (c) Steve Scherf et al.
# Submitted via: CDex 1.70beta2
#
DISCID=1c038c03
DTITLE=奥華子 - 花火
DYEAR=2004
DGENRE=JPop
TTITLE0=花火 -君に恋した夏の日- (ピアノ弾き語り)
TTITLE1=ta.la.la
TTITLE2=花火 -君がいた夏の日- (アレンジバージョン)
EXTD=YEAR: 2004
EXTT0=
EXTT1=
EXTT2=
PLAYORDER=
